<svg width="400" height="245" viewBox="0 0 400 245" fill="none" xmlns="http://www.w3.org/2000/svg">
<g clip-path="url(#clip0)">
<path d="M11.9563 199.181L25.6167 128.612H46.7678L33.1077 199.181H11.9563Z" fill="#00A7F7"/>
<path d="M53.524 180.565C57.6367 182.585 65.4212 185.471 72.3248 185.471C78.347 185.471 81.4315 182.585 81.4315 179.121C81.4315 175.657 79.0814 173.204 72.4717 170.029C64.0997 165.988 57.196 160.072 57.196 151.269C57.196 136.693 70.2685 127.024 88.7762 127.024C97.1485 127.024 103.758 128.612 107.283 130.632L102.289 145.352C99.2048 143.909 94.2102 142.177 87.8943 142.177C82.3128 142.177 78.4939 144.63 78.4939 148.383C78.4939 151.269 81.4315 153.722 87.3074 156.464C95.0921 160.36 103.317 165.988 103.317 175.802C103.317 191.964 89.3638 200.912 70.4154 200.768C61.3085 200.479 52.6424 198.315 48.3831 195.14L53.524 180.565Z" fill="#00A7F7"/>
<path d="M151.933 124.86C144.001 132.797 139.594 148.527 139.594 159.928C139.594 173.638 145.911 183.45 160.158 183.45C166.621 183.45 172.203 180.853 176.609 176.524C184.394 168.731 188.947 152.712 188.947 141.023C188.947 130.055 184.541 117.644 169.118 117.644C162.361 117.644 156.486 120.386 151.933 124.86ZM195.41 216.643C181.897 212.747 167.355 207.118 158.396 202.933C153.842 200.913 152.374 200.479 151.492 200.479C132.25 199.037 117.121 184.317 117.121 159.928C117.121 143.332 123.143 126.448 134.306 115.335C144.001 105.522 157.514 100.327 171.468 100.327C198.348 100.327 211.421 119.231 211.421 140.878C211.421 157.186 205.398 174.792 194.676 185.327C190.856 189.223 185.863 192.543 180.281 194.852V195.14C186.304 196.728 194.529 198.748 202.901 200.191L195.41 216.643Z" fill="#C21616"/>
<path d="M280.746 157.907H245.494L240.94 181.43H280.453L277.074 199.181H216.411L235.212 101.914H293.819L290.292 119.664H252.985L248.872 140.445H284.125L280.746 157.907Z" fill="#C21616"/>
<path d="M316.878 182.44C319.375 182.729 322.459 183.018 326.131 183.018C337.587 183.018 347.723 178.978 354.186 171.617C360.943 164.113 364.467 154.011 364.467 142.322C364.467 127.024 355.801 117.933 338.322 117.933C334.651 117.933 331.566 118.077 329.363 118.51L316.878 182.44ZM311.002 103.357C319.375 101.914 328.775 101.193 338.322 101.193C353.746 101.193 366.084 104.656 374.455 111.727C382.388 118.221 387.382 127.89 387.528 142.178C387.528 161.082 379.451 177.246 367.112 186.915C355.654 195.861 341.114 199.903 319.669 199.903C307.771 199.903 297.488 198.892 292.642 198.027L311.002 103.357Z" fill="#C21616"/>
<path d="M95.8528 36.8038C95.8528 41.6329 91.8686 45.5466 86.9542 45.5466C82.0398 45.5466 78.0557 41.6329 78.0557 36.8038C78.0557 31.9754 82.0398 28.0616 86.9542 28.0616C91.8686 28.0616 95.8528 31.9754 95.8528 36.8038Z" fill="#3B7CC8"/>
<path d="M91.5982 75.1215C91.5982 99.973 71.0926 120.118 45.7952 120.118C20.5001 120.118 0 99.973 0 75.1215C0 50.2719 20.5001 30.1252 45.7952 30.1252C71.0926 30.1252 91.5982 50.2719 91.5982 75.1215Z" fill="url(#paint0_radial)"/>
<path d="M77.0793 57.3221C77.0793 71.1112 62.6829 82.2913 44.9252 82.2913C27.165 82.2913 12.7686 71.1112 12.7686 57.3221C12.7686 43.5318 27.165 32.3523 44.9252 32.3523C62.6829 32.3523 77.0793 43.5318 77.0793 57.3221Z" fill="url(#paint1_linear)"/>
<path d="M35.9291 39.4128C35.9291 42.007 33.7887 44.1089 31.1491 44.1089C28.5093 44.1089 26.3691 42.007 26.3691 39.4128C26.3691 36.8172 28.5093 34.7166 31.1491 34.7166C33.7887 34.7166 35.9291 36.8172 35.9291 39.4128Z" fill="white"/>
<path d="M57.6384 41.2308C57.6384 43.8257 55.4983 45.9282 52.8587 45.9282C50.2168 45.9282 48.0769 43.8257 48.0769 41.2308C48.0769 38.6372 50.2168 36.5347 52.8587 36.5347C55.4983 36.5347 57.6384 38.6372 57.6384 41.2308Z" fill="white"/>
<path d="M37.9433 56.0347C37.9433 58.6283 35.8027 60.7322 33.1615 60.7322C30.523 60.7322 28.3818 58.6283 28.3818 56.0347C28.3818 53.4418 30.523 51.3393 33.1615 51.3393C35.8027 51.3393 37.9433 53.4418 37.9433 56.0347Z" fill="white"/>
<path d="M21.6414 76.3741C21.6414 78.969 19.5012 81.0715 16.8596 81.0715C14.22 81.0715 12.0796 78.969 12.0796 76.3741C12.0796 73.7818 14.22 71.6786 16.8596 71.6786C19.5012 71.6786 21.6414 73.7818 21.6414 76.3741Z" fill="white"/>
<path d="M60.8739 98.5274C60.8739 101.122 58.734 103.225 56.0939 103.225C53.4544 103.225 51.314 101.122 51.314 98.5274C51.314 95.9318 53.4544 93.8313 56.0939 93.8313C58.734 93.8313 60.8739 95.9318 60.8739 98.5274Z" fill="white"/>
<path d="M35.5967 90.3351C28.5052 86.3833 22.4986 81.5268 17.8563 76.2895C20.9556 71.2386 24.8723 66.0301 29.4944 60.9812C30.566 59.808 31.6519 58.6749 32.7441 57.5759C34.6904 64.5355 37.7417 72.1927 41.7885 79.8786C45.2682 86.4815 49.0949 92.3588 52.9655 97.238C47.2352 95.8269 41.338 93.536 35.5967 90.3351ZM31.8604 41.8687C31.8604 41.2801 31.8771 40.7109 31.909 40.159C33.1684 40.0835 34.454 40.0441 35.7638 40.0441C40.476 40.0441 45.4768 40.5385 50.6018 41.5634C50.1685 41.8132 49.7318 42.0665 49.2964 42.3304C44.1619 45.4237 38.8102 49.5332 33.6075 54.4919C32.453 49.7777 31.8569 45.4825 31.8604 41.8687ZM67.1681 108.497C64.0637 106.642 60.639 103.644 57.1548 99.7287C60.2924 100.258 63.3609 100.525 66.3112 100.525C71.8773 100.525 77.0243 99.5884 81.4117 97.7103C83.5523 96.7937 85.5128 95.6479 87.2461 94.2803C87.8167 93.0924 88.3389 91.8771 88.8033 90.6338C86.677 93.0089 83.9569 94.8856 80.7657 96.2532C76.6244 98.0257 71.6917 98.937 66.3112 98.935C62.8615 98.937 59.2253 98.5588 55.4999 97.8065C51.2794 92.739 47.0336 86.3879 43.2232 79.1477C39.0515 71.2353 35.9606 63.3383 34.0635 56.2751C39.3994 51.1033 44.9064 46.8387 50.1411 43.6853C51.0931 43.1107 52.039 42.5749 52.9716 42.0745C53.585 42.2154 54.201 42.3638 54.8173 42.5208C65.8572 45.3342 74.9849 51.4226 81.3416 58.5079C87.7031 65.5905 91.2622 73.6752 91.2527 80.3523C91.2527 80.4665 91.25 80.5821 91.248 80.6937C91.4764 78.8697 91.5982 77.0104 91.5982 75.1217C91.5982 74.2097 91.5682 73.3051 91.5125 72.4058C89.875 67.3803 86.8055 62.1992 82.5561 57.4583C75.9975 50.1465 66.6037 43.8844 55.2239 40.9828C55.2 40.9768 55.1772 40.9708 55.153 40.9641C59.9786 38.6451 64.4106 37.4151 68.0094 37.4218C69.2865 37.4231 70.4493 37.5734 71.4958 37.8734C70.4085 37.1485 69.2851 36.4677 68.1332 35.835C68.0917 35.833 68.0509 35.833 68.0094 35.833C63.6002 35.8397 58.3586 37.4559 52.7445 40.3895C46.8856 39.0814 41.1491 38.456 35.7638 38.456C34.5042 38.456 33.2658 38.4914 32.0506 38.5576C32.2071 37.2862 32.4591 36.1424 32.8058 35.1516C33.4329 33.3617 34.3472 32.0816 35.5194 31.3113L35.4913 31.2712C34.5032 31.4943 33.5291 31.7516 32.5656 32.0362C32.0426 32.7965 31.6142 33.671 31.2765 34.6378C30.8576 35.8377 30.5724 37.1893 30.4103 38.6711C24.1426 39.1802 18.5132 40.5993 13.9313 42.8348C13.9133 42.8441 13.8936 42.8535 13.875 42.8628C12.4285 44.2438 11.0729 45.7176 9.82132 47.2757C11.2244 46.1512 12.8412 45.1424 14.6504 44.2578C18.9403 42.1607 24.2892 40.7924 30.2818 40.2766C30.2558 40.7944 30.2433 41.3255 30.2433 41.8687C30.2465 45.8853 30.9365 50.6229 32.2652 55.7934C30.9273 57.1142 29.6002 58.4892 28.292 59.9169C23.7439 64.887 19.8639 70.0093 16.7531 75.0108C16.0171 74.1282 15.3156 73.2363 14.6565 72.3377C9.72225 65.6112 7.02582 58.5079 7.02901 52.0727C7.02901 51.7573 7.0386 51.4407 7.05084 51.1266C6.49485 51.9918 5.96625 52.8744 5.47192 53.779C5.89905 60.1581 8.68068 66.9066 13.3454 73.267C14.133 74.342 14.9782 75.4069 15.8717 76.4565C14.9718 77.9665 14.143 79.4637 13.3895 80.9369C9.91904 87.7422 8.0153 94.0758 8.01237 99.253C8.01237 99.7167 8.02808 100.174 8.05963 100.621C8.73114 101.577 9.43882 102.507 10.1813 103.407C9.8152 102.182 9.63058 100.795 9.62949 99.253C9.62473 94.458 11.434 88.3021 14.8361 81.6511C15.4954 80.3623 16.2139 79.0521 16.9893 77.7306C21.7108 82.9592 27.731 87.7789 34.7975 91.7181C41.3462 95.364 48.0923 97.8653 54.6095 99.2456C55.8073 100.664 57.0033 101.984 58.1912 103.195C60.9843 106.037 63.7264 108.293 66.3255 109.852C68.2583 111.009 70.1154 111.79 71.8712 112.117C72.5424 111.66 73.1979 111.185 73.8425 110.696C73.7793 110.698 73.7181 110.7 73.6555 110.7C71.8284 110.704 69.6075 109.961 67.1681 108.497Z" fill="white"/>
<path d="M50.1448 112.504C57.3943 109.716 64.6074 105.584 71.3149 100.16C79.4076 93.6116 85.765 85.9918 90.1334 78.0794C90.6488 77.1414 91.1357 76.2014 91.5961 75.258C91.5961 75.2119 91.5981 75.1665 91.5981 75.1217C91.5981 69.344 90.4863 63.8221 88.468 58.7465C87.7588 63.7052 85.9337 69.0199 83.0212 74.292C79.1887 81.2436 73.4929 88.1077 66.1754 94.0251C60.1111 98.929 53.6147 102.637 47.1961 105.106C40.7766 107.573 34.4385 108.798 28.7209 108.797C24.309 108.797 20.2763 108.073 16.8128 106.683C13.3469 105.291 10.4457 103.258 8.15707 100.534L8.05615 100.615C13.0584 107.75 20.0999 113.396 28.3583 116.74C28.4795 116.74 28.6008 116.743 28.7209 116.743C35.6046 116.74 42.8918 115.29 50.1448 112.504Z" fill="white"/>
<path d="M90.7913 39.8496C91.472 39.0185 91.8807 37.9602 91.8807 36.8117C91.8807 34.1326 89.6706 31.9639 86.9458 31.9639C84.2211 31.9639 82.0111 34.1326 82.0111 36.8117C82.0111 39.4881 84.2211 41.6595 86.9458 41.6595C87.4389 41.6595 87.9149 41.588 88.3643 41.455C90.4016 45.1944 91.3917 49.487 91.3945 54.1304C91.4169 67.5439 82.9658 83.7562 67.8192 95.9879C55.2842 106.133 40.9037 111.347 28.7212 111.339C24.0247 111.339 19.6578 110.569 15.837 109.038C15.7491 109.004 15.6656 108.966 15.5769 108.93C17.6403 110.711 19.8652 112.313 22.2314 113.711C24.3254 114.037 26.4956 114.2 28.7212 114.2C41.7386 114.191 56.6663 108.707 69.6703 98.1966C85.3492 85.4993 94.2852 68.7051 94.3069 54.1304C94.3103 48.9879 93.1727 44.1101 90.7913 39.8496Z" fill="url(#paint2_linear)"/>
</g>
<defs>
<radialGradient id="paint0_radial" cx="0" cy="0" r="1" gradientUnits="userSpaceOnUse" gradientTransform="translate(45.1823 57.3579) scale(60.9332 59.8668)">
<stop stop-color="#60B4E7"/>
<stop offset="0.368132" stop-color="#5DA2DD"/>
<stop offset="0.824176" stop-color="#397DC9"/>
<stop offset="0.989011" stop-color="#2A619E"/>
<stop offset="1" stop-color="#2A619E"/>
</radialGradient>
<linearGradient id="paint1_linear" x1="44.9239" y1="48.8011" x2="44.9239" y2="94.5122" gradientUnits="userSpaceOnUse">
<stop stop-color="#86CCEE"/>
<stop offset="1" stop-color="#4984CD"/>
</linearGradient>
<linearGradient id="paint2_linear" x1="3.91115" y1="73.0825" x2="94.3071" y2="73.0825" gradientUnits="userSpaceOnUse">
<stop stop-color="white"/>
<stop offset="0.236264" stop-color="white"/>
<stop offset="1" stop-color="#3F81CB"/>
</linearGradient>
<clipPath id="clip0">
<rect width="400" height="244.727" fill="white"/>
</clipPath>
</defs>
</svg>
